<svg width="200" height="200" viewBox="0 0 200 200" fill="none" xmlns="http://www.w3.org/2000/svg">
  <!-- Main Z Body Paths -->
  <path d="M40 60H140M40 60C30 60 30 70 40 80H120C130 80 135 85 135 95V115C135 125 130 130 120 130H60C50 130 45 135 45 145V145C45 155 50 160 60 160H160" stroke="#2563EB" stroke-width="12" stroke-linecap="round" stroke-linejoin="round"/>
  
  <!-- Diagonal Circuit Tracks -->
  <path d="M65 130L125 70" stroke="#2563EB" stroke-width="12" stroke-linecap="round"/>
  <path d="M85 130L145 70" stroke="#06B6D4" stroke-width="12" stroke-opacity="0.6" stroke-linecap="round"/>
  
  <!-- The Arrow -->
  <path d="M140 40L170 40V70" stroke="#06B6D4" stroke-width="12" stroke-linecap="round" stroke-linejoin="round"/>
  <path d="M125 85L170 40" stroke="#06B6D4" stroke-width="12" stroke-linecap="round"/>

  <!-- Circuit Connector Dots -->
  <circle cx="50" cy="60" r="5" fill="#06B6D4"/>
  <circle cx="80" cy="60" r="5" fill="#06B6D4"/>
  <circle cx="100" cy="160" r="5" fill="#06B6D4"/>
  <circle cx="130" cy="160" r="5" fill="#06B6D4"/>
  
  <!-- Glow Effect Base -->
  <defs>
    <filter id="glow" x="-20%" y="-20%" width="140%" height="140%">
      <feGaussianBlur stdDeviation="3" result="blur" />
      <feComposite in="SourceGraphic" in2="blur" operator="over" />
    </filter>
  </defs>
</svg>
